G75*
%MOIN*%
%OFA0B0*%
%FSLAX24Y24*%
%IPPOS*%
%LPD*%
%AMOC8*
5,1,8,0,0,1.08239X$1,22.5*
%
%ADD10C,0.0160*%
%ADD11C,0.0050*%
%ADD12C,0.0080*%
%ADD13C,0.0040*%
D10*
X000514Y000180D02*
X012514Y000180D01*
X012514Y033180D01*
X000514Y033180D01*
X000514Y000180D01*
D11*
X000470Y000783D02*
X000395Y000783D01*
X000319Y000858D01*
X000319Y001008D01*
X000394Y001083D01*
X000544Y001084D01*
X000545Y000859D01*
X000470Y000783D01*
X000695Y000934D02*
X000544Y001084D01*
X000544Y001244D02*
X000469Y001319D01*
X000468Y001544D01*
X000318Y001544D02*
X000769Y001544D01*
X000769Y001319D01*
X000694Y001244D01*
X000544Y001244D01*
X000695Y000934D02*
X000770Y000784D01*
X000768Y001705D02*
X000768Y001855D01*
X000768Y001780D02*
X000393Y001779D01*
X000318Y001854D01*
X000317Y001929D01*
X000392Y002004D01*
X000694Y016675D02*
X000769Y016750D01*
X000769Y016825D01*
X000694Y016900D01*
X000318Y016900D01*
X000318Y016825D02*
X000318Y016975D01*
X000318Y017135D02*
X000318Y017361D01*
X000393Y017436D01*
X000544Y017436D01*
X000619Y017361D01*
X000619Y017135D01*
X000769Y017135D02*
X000318Y017135D01*
X000318Y017596D02*
X000544Y017596D01*
X000469Y017746D01*
X000469Y017821D01*
X000544Y017896D01*
X000694Y017896D01*
X000769Y017821D01*
X000769Y017671D01*
X000694Y017596D01*
X000318Y017596D02*
X000318Y017896D01*
X004756Y018294D02*
X004756Y018314D01*
X005150Y018688D02*
X005169Y018688D01*
X008358Y014672D02*
X008378Y014672D01*
X008772Y015066D02*
X008772Y015086D01*
X010318Y016825D02*
X010318Y016975D01*
X010318Y016900D02*
X010694Y016900D01*
X010769Y016825D01*
X010769Y016750D01*
X010694Y016675D01*
X010769Y017135D02*
X010318Y017135D01*
X010318Y017361D01*
X010393Y017436D01*
X010544Y017436D01*
X010619Y017361D01*
X010619Y017135D01*
X010619Y017596D02*
X010544Y017671D01*
X010544Y017821D01*
X010619Y017896D01*
X010694Y017896D01*
X010769Y017821D01*
X010769Y017671D01*
X010694Y017596D01*
X010619Y017596D01*
X010544Y017671D02*
X010469Y017596D01*
X010393Y017596D01*
X010318Y017671D01*
X010318Y017821D01*
X010393Y017896D01*
X010469Y017896D01*
X010544Y017821D01*
X010393Y001896D02*
X010694Y001596D01*
X010769Y001596D01*
X010544Y001436D02*
X010619Y001361D01*
X010619Y001135D01*
X010769Y001135D02*
X010318Y001135D01*
X010318Y001361D01*
X010393Y001436D01*
X010544Y001436D01*
X010318Y001596D02*
X010318Y001896D01*
X010393Y001896D01*
X010318Y000975D02*
X010318Y000825D01*
X010318Y000900D02*
X010694Y000900D01*
X010769Y000825D01*
X010769Y000750D01*
X010694Y000675D01*
D12*
X011014Y000930D02*
X011014Y001430D01*
X011264Y001680D01*
X011014Y001930D01*
X011014Y002430D01*
X011264Y002680D01*
X011014Y002930D01*
X011014Y003430D01*
X011264Y003680D01*
X011014Y003930D01*
X011014Y004430D01*
X011264Y004680D01*
X011014Y004930D01*
X011014Y005430D01*
X011264Y005680D01*
X011014Y005930D01*
X011014Y006430D01*
X011264Y006680D01*
X011014Y006930D01*
X011014Y007430D01*
X011264Y007680D01*
X011014Y007930D01*
X011014Y008430D01*
X011264Y008680D01*
X011014Y008930D01*
X011014Y009430D01*
X011264Y009680D01*
X011014Y009930D01*
X011014Y010430D01*
X011264Y010680D01*
X011014Y010930D01*
X011014Y011430D01*
X011264Y011680D01*
X011014Y011930D01*
X011014Y012430D01*
X011264Y012680D01*
X011014Y012930D01*
X011014Y013430D01*
X011264Y013680D01*
X011014Y013930D01*
X011014Y014430D01*
X011264Y014680D01*
X011014Y014930D01*
X011014Y015430D01*
X011264Y015680D01*
X011014Y015930D01*
X011014Y016430D01*
X011264Y016680D01*
X011014Y016930D01*
X011014Y017430D01*
X011264Y017680D01*
X011014Y017930D01*
X011014Y018430D01*
X011264Y018680D01*
X011014Y018930D01*
X011014Y019430D01*
X011264Y019680D01*
X011014Y019930D01*
X011014Y020430D01*
X011264Y020680D01*
X011014Y020930D01*
X011014Y021430D01*
X011264Y021680D01*
X011014Y021930D01*
X011014Y022430D01*
X011264Y022680D01*
X011014Y022930D01*
X011014Y023430D01*
X011264Y023680D01*
X011014Y023930D01*
X011014Y024430D01*
X011264Y024680D01*
X011014Y024930D01*
X011014Y025430D01*
X011264Y025680D01*
X011014Y025930D01*
X011014Y026430D01*
X011264Y026680D01*
X011014Y026930D01*
X011014Y027430D01*
X011264Y027680D01*
X011014Y027930D01*
X011014Y028430D01*
X011264Y028680D01*
X011014Y028930D01*
X011014Y029430D01*
X011264Y029680D01*
X011014Y029930D01*
X011014Y030430D01*
X011264Y030680D01*
X011014Y030930D01*
X011014Y031430D01*
X011264Y031680D01*
X011014Y031930D01*
X011014Y032430D01*
X011264Y032680D01*
X011764Y032680D01*
X012014Y032430D01*
X012014Y031930D01*
X011764Y031680D01*
X012014Y031430D01*
X012014Y030930D01*
X011764Y030680D01*
X012014Y030430D01*
X012014Y029930D01*
X011764Y029680D01*
X012014Y029430D01*
X012014Y028930D01*
X011764Y028680D01*
X012014Y028430D01*
X012014Y027930D01*
X011764Y027680D01*
X012014Y027430D01*
X012014Y026930D01*
X011764Y026680D01*
X012014Y026430D01*
X012014Y025930D01*
X011764Y025680D01*
X012014Y025430D01*
X012014Y024930D01*
X011764Y024680D01*
X012014Y024430D01*
X012014Y023930D01*
X011764Y023680D01*
X012014Y023430D01*
X012014Y022930D01*
X011764Y022680D01*
X012014Y022430D01*
X012014Y021930D01*
X011764Y021680D01*
X012014Y021430D01*
X012014Y020930D01*
X011764Y020680D01*
X012014Y020430D01*
X012014Y019930D01*
X011764Y019680D01*
X012014Y019430D01*
X012014Y018930D01*
X011764Y018680D01*
X012014Y018430D01*
X012014Y017930D01*
X011764Y017680D01*
X012014Y017430D01*
X012014Y016930D01*
X011764Y016680D01*
X011264Y016680D01*
X011764Y016680D01*
X012014Y016430D01*
X012014Y015930D01*
X011764Y015680D01*
X012014Y015430D01*
X012014Y014930D01*
X011764Y014680D01*
X012014Y014430D01*
X012014Y013930D01*
X011764Y013680D01*
X012014Y013430D01*
X012014Y012930D01*
X011764Y012680D01*
X012014Y012430D01*
X012014Y011930D01*
X011764Y011680D01*
X012014Y011430D01*
X012014Y010930D01*
X011764Y010680D01*
X012014Y010430D01*
X012014Y009930D01*
X011764Y009680D01*
X012014Y009430D01*
X012014Y008930D01*
X011764Y008680D01*
X012014Y008430D01*
X012014Y007930D01*
X011764Y007680D01*
X012014Y007430D01*
X012014Y006930D01*
X011764Y006680D01*
X012014Y006430D01*
X012014Y005930D01*
X011764Y005680D01*
X012014Y005430D01*
X012014Y004930D01*
X011764Y004680D01*
X012014Y004430D01*
X012014Y003930D01*
X011764Y003680D01*
X012014Y003430D01*
X012014Y002930D01*
X011764Y002680D01*
X012014Y002430D01*
X012014Y001930D01*
X011764Y001680D01*
X012014Y001430D01*
X012014Y000930D01*
X011764Y000680D01*
X011264Y000680D01*
X011014Y000930D01*
X011264Y000680D02*
X011764Y000680D01*
X008772Y014672D02*
X008378Y014672D01*
X008772Y014672D02*
X008772Y015066D01*
X008772Y018294D02*
X008772Y018688D01*
X008398Y018688D01*
X011264Y016680D02*
X011764Y016680D01*
X011264Y016680D01*
X005169Y014672D02*
X004756Y014672D01*
X004756Y015105D01*
X004756Y018314D02*
X004756Y018688D01*
X005150Y018688D01*
X002014Y018930D02*
X001764Y018680D01*
X002014Y018430D01*
X002014Y017930D01*
X001764Y017680D01*
X002014Y017430D01*
X002014Y016930D01*
X001764Y016680D01*
X001264Y016680D01*
X001014Y016930D01*
X001014Y017430D01*
X001264Y017680D01*
X001014Y017930D01*
X001014Y018430D01*
X001264Y018680D01*
X001014Y018930D01*
X001014Y019430D01*
X001264Y019680D01*
X001014Y019930D01*
X001014Y020430D01*
X001264Y020680D01*
X001014Y020930D01*
X001014Y021430D01*
X001264Y021680D01*
X001014Y021930D01*
X001014Y022430D01*
X001264Y022680D01*
X001014Y022930D01*
X001014Y023430D01*
X001264Y023680D01*
X001014Y023930D01*
X001014Y024430D01*
X001264Y024680D01*
X001014Y024930D01*
X001014Y025430D01*
X001264Y025680D01*
X001014Y025930D01*
X001014Y026430D01*
X001264Y026680D01*
X001014Y026930D01*
X001014Y027430D01*
X001264Y027680D01*
X001014Y027930D01*
X001014Y028430D01*
X001264Y028680D01*
X001014Y028930D01*
X001014Y029430D01*
X001264Y029680D01*
X001014Y029930D01*
X001014Y030430D01*
X001264Y030680D01*
X001014Y030930D01*
X001014Y031430D01*
X001264Y031680D01*
X001014Y031930D01*
X001014Y032430D01*
X001264Y032680D01*
X001764Y032680D01*
X002014Y032430D01*
X002014Y031930D01*
X001764Y031680D01*
X002014Y031430D01*
X002014Y030930D01*
X001764Y030680D01*
X002014Y030430D01*
X002014Y029930D01*
X001764Y029680D01*
X002014Y029430D01*
X002014Y028930D01*
X001764Y028680D01*
X002014Y028430D01*
X002014Y027930D01*
X001764Y027680D01*
X002014Y027430D01*
X002014Y026930D01*
X001764Y026680D01*
X002014Y026430D01*
X002014Y025930D01*
X001764Y025680D01*
X002014Y025430D01*
X002014Y024930D01*
X001764Y024680D01*
X002014Y024430D01*
X002014Y023930D01*
X001764Y023680D01*
X002014Y023430D01*
X002014Y022930D01*
X001764Y022680D01*
X002014Y022430D01*
X002014Y021930D01*
X001764Y021680D01*
X002014Y021430D01*
X002014Y020930D01*
X001764Y020680D01*
X002014Y020430D01*
X002014Y019930D01*
X001764Y019680D01*
X002014Y019430D01*
X002014Y018930D01*
X001764Y016680D02*
X001264Y016680D01*
X001237Y016680D02*
X001737Y016680D01*
X001987Y016431D01*
X001988Y015931D01*
X001738Y015680D01*
X001989Y015431D01*
X001990Y014931D01*
X001740Y014680D01*
X001991Y014431D01*
X001992Y013931D01*
X001742Y013680D01*
X001992Y013431D01*
X001993Y012931D01*
X001744Y012680D01*
X001994Y012431D01*
X001995Y011931D01*
X001745Y011680D01*
X001996Y011431D01*
X001997Y010931D01*
X001747Y010680D01*
X001998Y010431D01*
X001999Y009931D01*
X001749Y009680D01*
X001999Y009431D01*
X002000Y008931D01*
X001751Y008680D01*
X002001Y008431D01*
X002002Y007931D01*
X001752Y007680D01*
X002003Y007431D01*
X002004Y006931D01*
X001754Y006680D01*
X002005Y006431D01*
X002005Y005931D01*
X001756Y005680D01*
X002006Y005431D01*
X002007Y004931D01*
X001758Y004680D01*
X002008Y004431D01*
X002009Y003931D01*
X001759Y003680D01*
X002010Y003431D01*
X002011Y002931D01*
X001761Y002680D01*
X002012Y002431D01*
X002012Y001931D01*
X001763Y001680D01*
X002013Y001431D01*
X002014Y000931D01*
X001765Y000680D01*
X001265Y000680D01*
X001014Y000929D01*
X001013Y001429D01*
X001263Y001680D01*
X001012Y001929D01*
X001012Y002429D01*
X001261Y002680D01*
X001011Y002929D01*
X001010Y003429D01*
X001259Y003680D01*
X001009Y003929D01*
X001008Y004429D01*
X001258Y004680D01*
X001007Y004929D01*
X001006Y005429D01*
X001256Y005680D01*
X001005Y005929D01*
X001005Y006429D01*
X001254Y006680D01*
X001004Y006929D01*
X001003Y007429D01*
X001252Y007680D01*
X001002Y007929D01*
X001001Y008429D01*
X001251Y008680D01*
X001000Y008929D01*
X000999Y009429D01*
X001249Y009680D01*
X000999Y009929D01*
X000998Y010429D01*
X001247Y010680D01*
X000997Y010929D01*
X000996Y011429D01*
X001245Y011680D01*
X000995Y011929D01*
X000994Y012429D01*
X001244Y012680D01*
X000993Y012929D01*
X000992Y013429D01*
X001242Y013680D01*
X000992Y013929D01*
X000991Y014429D01*
X001240Y014680D01*
X000990Y014929D01*
X000989Y015429D01*
X001238Y015680D01*
X000988Y015929D01*
X000987Y016429D01*
X001237Y016680D01*
X001737Y016680D01*
X001764Y032680D02*
X001264Y032680D01*
X011264Y032680D02*
X011764Y032680D01*
X001765Y000680D02*
X001265Y000680D01*
D13*
X005679Y017881D02*
X005603Y017958D01*
X005603Y018341D01*
X005679Y017881D02*
X005833Y017881D01*
X005910Y017958D01*
X005910Y018341D01*
X006063Y018265D02*
X006140Y018341D01*
X006293Y018341D01*
X006370Y018265D01*
X006523Y018188D02*
X006677Y018341D01*
X006677Y017881D01*
X006830Y017881D02*
X006523Y017881D01*
X006370Y017958D02*
X006370Y018035D01*
X006293Y018111D01*
X006140Y018111D01*
X006063Y018188D01*
X006063Y018265D01*
X006217Y018418D02*
X006217Y017804D01*
X006140Y017881D02*
X006293Y017881D01*
X006370Y017958D01*
X006140Y017881D02*
X006063Y017958D01*
M02*
